<?xml version="1.0" standalone="no"?>
<!DOCTYPE svg PUBLIC "-//W3C//DTD SVG 20010904//EN"
 "http://www.w3.org/TR/2001/REC-SVG-20010904/DTD/svg10.dtd">
<svg version="1.0" xmlns="http://www.w3.org/2000/svg"
 width="1616.000000pt" height="1616.000000pt" viewBox="0 0 1616.000000 1616.000000"
 preserveAspectRatio="xMidYMid meet">
<metadata>
Created by potrace 1.11, written by Peter Selinger 2001-2013
</metadata>
<g transform="translate(0.000000,1616.000000) scale(0.100000,-0.100000)"
fill="#000000" stroke="none">
<path d="M7134 15799 c-3 -5 -9 -7 -14 -4 -11 7 -47 -70 -55 -115 -9 -57 -46
-184 -57 -197 -6 -7 -8 -13 -5 -13 8 0 -14 -51 -97 -223 -36 -76 -66 -141 -66
-143 0 -2 -11 -22 -24 -43 -14 -21 -23 -41 -20 -43 2 -3 -2 -11 -11 -18 -8 -7
-15 -18 -15 -26 0 -7 -13 -32 -28 -56 -16 -24 -47 -72 -70 -108 -22 -36 -46
-70 -51 -77 -6 -7 -11 -17 -11 -23 0 -19 -24 -37 -45 -34 -219 25 -727 25
-855 0 -14 -2 -56 -7 -95 -10 -38 -3 -79 -8 -90 -10 -11 -2 -45 -7 -75 -11
-30 -4 -64 -9 -75 -11 -10 -2 -35 -6 -55 -9 -43 -6 -75 -12 -115 -22 -16 -3
-37 -7 -45 -8 -47 -6 -347 -76 -400 -94 -14 -5 -45 -14 -70 -21 -52 -14 -87
-25 -115 -36 -11 -4 -22 -8 -25 -8 -19 -4 -186 -61 -190 -66 -3 -3 -13 -6 -23
-8 -23 -4 -300 -119 -392 -163 -38 -18 -73 -34 -77 -34 -4 0 -13 -6 -19 -12
-7 -7 -21 -13 -30 -13 -10 0 -19 -3 -21 -7 -1 -5 -37 -25 -78 -46 -106 -55
-154 -81 -160 -88 -3 -4 -15 -9 -27 -13 -13 -4 -23 -12 -23 -17 0 -5 -9 -9
-19 -9 -11 0 -21 -3 -23 -8 -1 -4 -46 -34 -98 -66 -52 -32 -96 -63 -98 -67 -2
-5 -8 -9 -13 -9 -11 0 -101 -61 -125 -84 -8 -9 -19 -16 -24 -16 -5 0 -15 -6
-22 -12 -7 -7 -40 -33 -73 -58 -65 -49 -91 -70 -109 -85 -6 -6 -24 -21 -41
-33 -36 -28 -145 -124 -192 -169 -18 -18 -39 -33 -45 -33 -6 0 -9 -3 -6 -6 3
-3 -15 -24 -40 -47 -25 -23 -56 -53 -68 -67 -12 -14 -44 -48 -70 -77 -27 -28
-69 -75 -94 -104 -25 -28 -51 -58 -57 -65 -7 -7 -13 -15 -13 -18 0 -3 -8 -14
-17 -24 -10 -10 -29 -33 -43 -52 -34 -46 -76 -100 -100 -130 -11 -14 -20 -29
-20 -33 0 -4 -9 -18 -21 -30 -11 -12 -32 -43 -47 -69 -15 -27 -30 -48 -34 -48
-5 0 -8 -9 -8 -19 0 -10 -7 -21 -15 -25 -8 -3 -15 -11 -15 -17 0 -7 -6 -20
-14 -28 -7 -9 -29 -45 -47 -81 -19 -36 -39 -70 -45 -77 -6 -6 -17 -26 -24 -45
-8 -18 -16 -35 -19 -38 -16 -14 -151 -307 -201 -435 -15 -38 -31 -79 -35 -90
-5 -11 -9 -24 -10 -30 -1 -5 -8 -26 -17 -45 -8 -19 -18 -48 -22 -65 -4 -16
-13 -43 -21 -60 -10 -24 -31 -89 -41 -127 -1 -5 -2 -9 -4 -10 -1 -2 -3 -10 -5
-18 -2 -8 -15 -59 -30 -113 -14 -54 -29 -108 -31 -120 -9 -39 -12 -52 -14 -52
-1 0 -3 -7 -5 -16 -1 -10 -10 -48 -19 -87 -15 -67 -23 -112 -31 -171 -2 -14
-4 -26 -5 -26 -3 0 -10 -38 -14 -75 -2 -19 -5 -35 -6 -35 -1 0 -3 -10 -14
-110 -3 -27 -8 -60 -10 -73 -3 -12 -7 -50 -11 -83 -3 -33 -8 -82 -11 -107 -3
-26 -7 -69 -9 -97 -2 -27 -6 -75 -9 -105 -3 -30 -8 -89 -11 -130 -8 -118 -15
-210 -20 -280 -3 -36 -8 -94 -10 -130 -6 -75 -13 -163 -21 -235 -3 -27 -7 -68
-9 -90 -2 -22 -6 -60 -9 -83 -4 -24 -8 -62 -11 -85 -6 -59 -14 -107 -21 -140
-3 -15 -7 -45 -9 -67 -2 -21 -5 -42 -8 -47 -3 -4 -8 -26 -11 -48 -17 -110
-114 -434 -152 -507 -8 -16 -11 -28 -7 -28 5 0 4 -4 -2 -8 -5 -4 -26 -38 -45
-77 -19 -38 -39 -73 -45 -77 -5 -4 -6 -8 -1 -8 4 0 -3 -15 -18 -34 -14 -19
-26 -39 -26 -45 0 -6 -4 -11 -10 -11 -5 0 -10 -5 -10 -11 0 -6 -9 -23 -21 -37
-11 -15 -34 -45 -50 -67 -70 -92 -156 -191 -230 -266 -26 -26 -51 -55 -57 -65
-15 -27 5 -64 37 -65 14 -1 40 -3 56 -5 57 -7 450 -7 545 0 115 9 154 13 200
20 19 3 54 7 77 10 23 2 46 6 50 9 13 8 103 18 103 12 0 -7 -59 -96 -69 -105
-4 -3 -19 -23 -36 -45 -43 -58 -42 -57 -213 -230 -153 -155 -296 -290 -357
-336 -16 -13 -40 -33 -52 -46 -12 -13 -26 -23 -32 -23 -5 0 -11 -3 -13 -8 -5
-11 -225 -170 -258 -186 -17 -8 -39 -21 -97 -59 -63 -40 -49 -89 29 -102 23
-4 55 -13 72 -20 17 -7 39 -11 48 -10 10 2 20 -1 24 -6 3 -5 20 -9 37 -9 18 0
48 -4 67 -9 93 -25 527 -35 750 -17 58 5 111 9 118 9 6 0 12 3 12 6 0 3 17 6
38 7 37 0 124 11 152 19 8 2 32 6 54 10 21 3 42 7 46 10 3 2 20 7 36 9 47 9
109 24 109 26 0 1 9 3 20 5 15 3 21 -1 22 -15 5 -58 89 -358 128 -452 4 -11 0
-18 -15 -23 -12 -4 -19 -9 -17 -12 5 -5 -31 -111 -58 -170 -8 -17 -15 -34 -15
-38 0 -4 -7 -23 -16 -43 -9 -21 -26 -57 -37 -82 -39 -89 -71 -155 -77 -160 -4
-3 -10 -13 -13 -24 -9 -23 -109 -174 -134 -201 -49 -53 -69 -109 -54 -148 22
-57 147 -61 341 -13 8 2 29 7 45 11 17 4 36 12 43 18 6 5 12 7 12 3 0 -11 126
39 279 111 62 30 75 33 82 21 30 -54 165 -232 216 -285 12 -13 20 -23 16 -23
-6 0 302 -305 336 -333 11 -9 23 -17 26 -17 3 0 18 -14 33 -30 16 -17 32 -30
36 -30 3 0 14 -8 24 -17 37 -36 72 -63 81 -63 5 0 11 -4 13 -9 2 -4 41 -36 88
-69 47 -34 90 -66 97 -72 7 -5 24 -15 38 -22 14 -6 25 -15 25 -20 0 -4 5 -8
11 -8 6 0 31 -14 56 -31 38 -26 50 -30 71 -23 30 11 43 47 29 84 -9 27 -18 64
-21 92 -1 10 -5 21 -9 24 -4 4 -7 19 -7 34 0 15 -3 30 -7 34 -5 4 -8 15 -9 24
0 9 -6 42 -12 72 -6 30 -14 73 -17 95 -3 22 -7 51 -9 65 -18 98 -26 275 -26
520 1 258 4 350 11 342 3 -4 13 -34 23 -67 18 -58 38 -112 57 -147 5 -10 9
-25 9 -33 0 -8 5 -15 10 -15 6 0 10 -9 10 -19 0 -11 3 -21 8 -23 4 -1 18 -25
32 -53 14 -27 30 -56 37 -63 7 -7 13 -17 13 -22 0 -11 105 -164 152 -221 21
-26 38 -50 38 -53 0 -3 8 -14 18 -24 9 -10 37 -42 62 -71 123 -147 291 -315
420 -421 30 -25 57 -48 58 -52 2 -5 9 -8 16 -8 6 0 18 -9 26 -20 8 -11 20 -20
27 -20 7 0 13 -4 13 -10 0 -5 7 -10 15 -10 8 0 15 -4 15 -10 0 -5 7 -10 15
-10 8 0 15 -4 15 -10 0 -5 6 -10 14 -10 8 0 16 -3 18 -7 4 -10 153 -100 178
-108 11 -4 20 -11 20 -16 0 -5 9 -9 20 -9 11 0 20 -3 20 -8 0 -8 61 -38 73
-34 4 1 7 -2 7 -7 0 -26 49 0 106 58 43 43 64 58 65 47 2 -17 5 -34 9 -38 2
-4 10 -37 14 -63 2 -11 15 -65 31 -120 15 -55 29 -108 30 -118 2 -9 6 -21 9
-26 3 -5 -11 -21 -31 -37 -39 -29 -113 -101 -113 -108 0 -3 -19 -33 -43 -68
-23 -35 -49 -76 -57 -93 -37 -74 -120 -156 -249 -244 -134 -92 -167 -121 -207
-176 -16 -22 -32 -42 -35 -45 -3 -3 -30 -53 -60 -112 -30 -59 -60 -120 -68
-135 -8 -15 -32 -52 -53 -81 -21 -28 -36 -52 -33 -52 3 0 -3 -9 -13 -19 -20
-22 -27 -31 -67 -86 -32 -43 -41 -54 -105 -130 -88 -106 -242 -278 -360 -403
-109 -115 -281 -303 -390 -425 -19 -22 -53 -59 -76 -83 -23 -24 -40 -44 -38
-44 2 0 -7 -10 -19 -23 -57 -59 -107 -119 -107 -128 0 -6 -4 -7 -10 -4 -5 3
-10 2 -10 -2 0 -5 -18 -28 -40 -52 -22 -23 -40 -45 -40 -47 0 -2 -15 -21 -34
-42 -19 -20 -49 -53 -66 -72 -18 -19 -49 -54 -71 -76 -21 -23 -36 -44 -33 -47
3 -3 -4 -8 -15 -12 -12 -3 -21 -11 -21 -17 0 -6 -17 -28 -38 -48 -20 -21 -62
-66 -92 -100 -53 -60 -107 -118 -231 -247 -32 -35 -59 -65 -59 -68 0 -3 1760
-5 3911 -5 2150 0 3908 3 3906 8 -3 4 -8 23 -11 42 -3 19 -8 46 -11 60 -9 43
-27 144 -30 170 -2 14 -4 25 -5 25 -2 0 -9 37 -15 85 -6 48 -12 85 -15 85 -1
0 -3 14 -5 30 -1 17 -5 44 -8 60 -3 17 -11 66 -17 110 -6 44 -13 91 -15 105
-3 14 -7 50 -11 80 -3 30 -8 64 -11 75 -5 26 -13 89 -18 140 -1 22 -5 54 -8
70 -3 17 -8 59 -12 95 -4 36 -9 79 -11 95 -21 151 -23 241 -6 238 6 -2 12 0
12 5 0 4 13 13 29 20 53 23 117 89 139 142 17 40 21 68 19 136 -2 96 -10 83
88 159 149 116 451 360 453 367 2 4 10 8 18 8 8 0 14 4 14 8 0 5 18 21 41 38
23 16 49 36 58 44 9 8 75 62 146 119 72 57 141 113 155 125 14 11 48 39 75 60
75 60 74 59 100 84 13 12 27 22 29 22 5 0 33 22 70 55 6 6 45 37 86 70 41 33
80 65 86 70 6 6 28 24 50 40 21 17 49 40 63 52 15 13 31 26 36 30 20 15 170
137 175 143 3 3 21 17 40 31 19 15 46 37 61 50 14 13 41 36 60 50 18 15 44 35
56 45 11 11 41 35 64 54 24 19 73 60 109 90 37 30 84 69 104 85 21 17 49 40
63 53 13 12 29 22 34 22 6 0 7 5 4 10 -3 6 0 10 9 10 8 0 16 3 18 8 2 4 15 17
30 28 15 12 53 43 84 70 145 124 360 309 370 319 6 5 46 42 89 80 143 126 227
207 435 415 211 212 224 225 361 382 45 51 85 95 88 98 3 3 24 28 45 55 22 28
44 55 50 60 6 6 27 30 46 55 19 25 39 50 45 56 5 6 19 23 30 38 11 15 27 36
35 45 8 10 26 33 40 52 14 18 33 41 43 51 9 10 17 20 17 23 0 6 15 26 41 53
38 40 43 73 23 162 -3 14 -7 36 -9 50 -10 68 -55 228 -88 309 l-26 63 47 -7
c26 -4 56 -6 67 -5 11 1 25 1 30 0 37 -4 222 -6 229 -2 5 3 28 6 50 8 23 1 55
5 71 9 17 3 43 8 59 11 84 16 354 124 364 146 2 5 12 8 23 8 10 0 19 5 19 10
0 6 7 10 15 10 8 0 15 5 15 10 0 6 6 10 14 10 8 0 16 3 18 8 2 4 22 20 46 35
62 40 76 53 176 152 101 100 123 125 163 187 15 24 30 45 33 48 47 45 175 335
195 442 2 11 6 27 9 36 3 9 7 31 10 47 14 90 18 127 21 200 2 44 4 85 5 90 1
6 2 12 0 15 -1 3 -3 30 -5 60 -4 73 -14 150 -22 175 -3 11 -7 27 -8 35 -2 25
-37 150 -52 190 -3 8 -7 20 -8 26 -4 17 -97 208 -105 214 -4 3 -17 24 -30 48
-13 23 -27 42 -32 42 -4 0 -8 5 -8 11 0 11 -30 51 -95 128 -33 38 -79 83 -135
131 -29 25 -57 50 -64 55 -28 25 -135 95 -145 95 -6 0 -11 4 -11 8 0 5 -16 14
-35 22 -19 8 -35 17 -35 22 0 4 -6 8 -13 8 -7 0 -35 11 -63 23 -84 40 -220 83
-319 101 -16 3 -41 9 -55 12 -35 9 -360 14 -360 6 0 -4 -15 -7 -32 -7 -62 -1
-133 -15 -238 -46 -113 -33 -310 -122 -349 -158 -13 -11 -28 -21 -33 -21 -11
0 -117 -78 -139 -102 -9 -10 -19 -18 -22 -18 -11 0 -107 -101 -107 -112 0 -6
-3 -8 -7 -5 -3 4 -11 0 -17 -9 -12 -16 -46 -10 -46 8 0 5 -4 6 -10 3 -5 -3
-10 -1 -10 5 0 5 -16 18 -35 27 -19 9 -35 20 -35 25 0 4 -6 8 -12 8 -7 1 -29
14 -48 30 -19 17 -38 30 -42 30 -5 0 -22 14 -38 30 -16 16 -32 30 -35 30 -15
0 -239 220 -276 272 l-20 28 28 1 c27 1 43 4 53 8 3 1 20 4 38 7 17 2 47 6 65
8 17 3 32 5 32 6 0 1 11 3 25 6 83 14 95 17 230 46 52 11 104 22 115 24 11 2
50 12 87 23 36 11 69 17 72 13 3 -3 6 0 6 7 0 7 3 10 8 7 4 -2 55 9 112 26 58
16 112 31 120 33 8 2 16 4 18 5 1 2 7 4 12 5 6 1 11 3 13 4 1 2 11 4 22 6 44
9 94 35 97 52 5 20 -35 63 -58 63 -20 0 -230 73 -281 97 -21 10 -40 18 -43 18
-13 1 -152 73 -210 109 -70 42 -180 126 -218 163 -13 13 -28 23 -34 23 -6 0
-9 2 -6 5 2 3 -25 35 -61 73 -68 70 -129 143 -145 171 -5 9 -14 21 -20 26 -21
19 -131 199 -157 258 -7 15 -16 27 -21 27 -4 0 -7 3 -6 8 1 4 -10 32 -24 62
-81 173 -128 285 -128 304 0 9 -4 16 -10 16 -5 0 -10 9 -10 20 0 11 -4 28 -9
38 -11 21 -57 140 -78 202 -8 25 -19 49 -24 55 -5 5 -9 16 -9 25 0 10 -7 31
-16 49 -9 17 -17 40 -19 49 -2 9 -4 19 -5 22 -1 3 -2 8 -1 13 0 4 -3 7 -8 7
-5 0 -12 12 -17 28 -4 15 -8 29 -9 32 -1 3 -9 22 -18 44 -9 21 -17 40 -17 43
0 6 -34 81 -81 180 -21 44 -39 84 -39 88 0 4 -9 20 -21 36 -11 16 -17 29 -14
29 4 0 -2 15 -13 33 -11 17 -39 68 -62 112 -24 44 -51 92 -59 107 -9 14 -31
52 -50 85 -19 32 -51 84 -72 115 -22 31 -39 62 -39 67 0 6 -4 11 -10 11 -5 0
-10 5 -10 10 0 11 -10 24 -42 61 -10 10 -17 20 -16 22 3 3 -35 60 -48 72 -6 6
-35 44 -64 85 -30 41 -58 78 -62 81 -5 3 -18 19 -31 36 -21 29 -88 107 -161
187 -62 69 -148 155 -233 233 -91 85 -103 95 -174 153 -24 19 -51 43 -61 53
-10 9 -18 15 -18 12 0 -6 -17 7 -55 43 -13 12 -27 22 -31 22 -4 0 -18 10 -30
21 -13 12 -32 27 -43 33 -11 6 -57 36 -103 67 -128 86 -189 125 -233 149 -22
12 -56 31 -75 42 -50 30 -340 177 -340 173 0 -2 -27 9 -59 26 -33 16 -63 29
-66 29 -4 0 -23 7 -43 16 -63 27 -100 41 -120 45 -4 0 -15 5 -25 11 -10 5 -26
11 -35 14 -9 2 -70 22 -136 44 -65 22 -128 42 -140 45 -11 2 -39 9 -61 15
-101 28 -167 42 -197 44 -10 0 -18 3 -18 7 0 5 -88 21 -115 20 -2 0 -19 4 -36
9 -18 5 -51 12 -73 15 -23 3 -70 10 -106 15 -67 11 -104 15 -226 26 l-71 7 2
43 c1 24 -1 44 -4 44 -3 0 -6 19 -6 43 0 38 -4 69 -20 152 -9 44 -34 142 -44
168 -5 12 -9 25 -10 30 0 4 -8 21 -16 37 -9 17 -13 30 -11 30 2 0 -12 30 -31
68 -20 37 -41 77 -47 89 -6 13 -14 23 -18 23 -5 0 -8 5 -8 11 0 20 -33 38 -67
39 -19 0 -33 -5 -33 -12 0 -6 -3 -9 -6 -5 -4 3 -30 -19 -58 -50 -93 -103 -181
-187 -236 -227 -29 -21 -58 -42 -64 -47 -6 -5 -29 -21 -51 -36 -97 -63 -125
-72 -125 -39 0 29 -199 398 -230 426 -3 3 -18 25 -35 50 -90 137 -199 268
-224 271 -3 0 -14 2 -23 4 -10 2 -20 -1 -24 -6z m6005 -7335 c-10 -37 -21 -83
-24 -103 -3 -20 -8 -48 -11 -61 -10 -41 -14 -352 -4 -400 4 -25 11 -63 14 -85
4 -22 9 -58 13 -79 5 -32 4 -37 -8 -30 -8 5 -16 9 -19 10 -3 0 -22 8 -42 17
-21 10 -42 17 -47 17 -5 0 -11 4 -13 9 -1 4 -12 11 -24 15 -16 5 -34 -7 -80
-50 -179 -170 -319 -301 -475 -445 -138 -128 -169 -153 -170 -140 -1 6 -2 19
-2 29 -1 9 -6 20 -12 24 -6 5 -5 8 3 8 7 0 10 5 7 10 -7 11 -10 28 -19 100 -4
25 -9 59 -12 75 -3 17 -7 39 -9 50 -2 11 -6 31 -9 45 -20 87 -23 81 56 163 94
98 126 135 173 202 11 15 28 36 38 47 9 10 16 20 15 23 -2 2 6 14 16 27 43 50
196 335 196 366 0 6 5 12 12 12 6 0 8 3 5 7 -4 3 -2 12 4 20 6 7 9 13 5 13 -4
0 0 14 9 30 9 17 12 30 8 30 -4 0 -2 5 3 10 11 11 32 16 94 25 45 7 220 45
240 52 8 4 26 8 40 10 13 2 27 6 29 9 16 16 16 -5 0 -62z m-2810 -2251 c47
-37 101 -82 119 -100 17 -18 32 -30 32 -27 0 4 61 -56 135 -131 l134 -137 -42
-35 c-23 -19 -53 -44 -67 -56 -14 -12 -128 -104 -255 -205 -126 -101 -239
-192 -250 -201 -42 -35 -45 -34 -30 15 8 26 13 50 13 53 -1 3 1 13 5 21 5 15
23 92 32 140 3 14 8 39 11 55 4 17 8 39 10 50 2 11 5 31 8 45 23 123 43 351
45 513 1 37 4 67 7 67 3 0 45 -30 93 -67z"/>
</g>
</svg>
